{
	"asset":{
		"version":"2.0",
		"generator":"Houdini GLTF 2.0 Exporter"
	},
	"animations":[
		{
			"channels":[
				{
					"target":{
						"node":1,
						"path":"translation"
					},
					"sampler":0
				},
				{
					"target":{
						"node":1,
						"path":"rotation"
					},
					"sampler":1
				},
				{
					"target":{
						"node":1,
						"path":"scale"
					},
					"sampler":2
				}
			],
			"samplers":[
				{
					"input":5,
					"interpolation":"LINEAR",
					"output":4
				},
				{
					"input":5,
					"interpolation":"LINEAR",
					"output":6
				},
				{
					"input":5,
					"interpolation":"LINEAR",
					"output":7
				}
			]
		}
	],
	"accessors":[
		{
			"bufferView":0,
			"componentType":5123,
			"count":2652,
			"type":"SCALAR",
			"min":[0
			],
			"max":[861
			]
		},
		{
			"bufferView":1,
			"componentType":5126,
			"count":862,
			"type":"VEC3",
			"min":[-0.112499952,0,-0.160155624
			],
			"max":[0.112499952,0.282349765,0.27963689
			]
		},
		{
			"bufferView":2,
			"componentType":5126,
			"count":862,
			"type":"VEC3",
			"min":[0.188235313,0.153613895,0.282352954
			],
			"max":[1,1,1
			]
		},
		{
			"bufferView":3,
			"componentType":5126,
			"count":862,
			"type":"VEC3",
			"min":[-1,-1,-1
			],
			"max":[1,1,1
			]
		},
		{
			"bufferView":4,
			"componentType":5126,
			"count":380,
			"type":"VEC3",
			"min":[1.82799804,0,0.2202546
			],
			"max":[3.31613278,0,3.87675691
			]
		},
		{
			"bufferView":5,
			"componentType":5126,
			"count":380,
			"type":"SCALAR",
			"min":[0
			],
			"max":[15.791667
			]
		},
		{
			"bufferView":6,
			"componentType":5126,
			"count":380,
			"type":"VEC4",
			"min":[-1.50995803e-07,-1,-4.07636662e-08,-1
			],
			"max":[0,0.0715089217,4.08120258e-08,1
			]
		},
		{
			"bufferView":7,
			"componentType":5126,
			"count":380,
			"type":"VEC3",
			"min":[0,0,0
			],
			"max":[1.25898421,1.25898421,1.25898421
			]
		}
	],
	"buffers":[
		{
			"uri":"Car_Animated_01_data.bin",
			"byteLength":53056,
			"name":"main_buffer"
		}
	],
	"bufferViews":[
		{
			"buffer":0,
			"byteLength":5304,
			"target":34963
		},
		{
			"buffer":0,
			"byteOffset":5304,
			"byteLength":10344,
			"target":34962
		},
		{
			"buffer":0,
			"byteOffset":15648,
			"byteLength":10344,
			"target":34962
		},
		{
			"buffer":0,
			"byteOffset":25992,
			"byteLength":10344,
			"target":34962
		},
		{
			"buffer":0,
			"byteOffset":36336,
			"byteLength":4560
		},
		{
			"buffer":0,
			"byteOffset":40896,
			"byteLength":1520
		},
		{
			"buffer":0,
			"byteOffset":42416,
			"byteLength":6080
		},
		{
			"buffer":0,
			"byteOffset":48496,
			"byteLength":4560
		}
	],
	"nodes":[
		{
			"children":[1
			],
			"name":"Car_Animated"
		},
		{
			"translation":[3.31613255,0,3.87675691
			],
			"scale":[0,0,0
			],
			"mesh":0
		}
	],
	"meshes":[
		{
			"primitives":[
				{
					"attributes":{
						"COLOR_0":2,
						"POSITION":1,
						"NORMAL":3
					},
					"indices":0
				}
			],
			"name":"name1"
		}
	],
	"scenes":[
		{
			"nodes":[0
			],
			"name":"Car_Animate"
		}
	],
	"scene":0
}
